<?xml version="1.0" encoding="UTF-8"?>
<svg width="752pt" height="752pt" version="1.1" viewBox="0 0 752 752" xmlns="http://www.w3.org/2000/svg">
 <g>
  <rect width="752" height="752" fill="#121212"/>
  <path d="m553.59 198.41c0-10.898-8.832-19.734-19.73-19.734-10.898 0-19.734 8.8359-19.734 19.734v36.672c-19.871-19.477-43.758-34.648-70.188-44.34-39.91-14.637-83.48-15.992-124.23-3.8672s-76.484 37.086-101.9 71.164c-25.41 34.078-39.141 75.453-39.141 117.96 0 10.898 8.8359 19.734 19.734 19.734 10.895 0 19.73-8.8359 19.73-19.734 0-34.008 10.984-67.105 31.312-94.367 20.332-27.266 48.922-47.23 81.52-56.934 32.594-9.6992 67.453-8.6172 99.379 3.0938 27.141 9.9531 50.934 27.129 68.879 49.547h-64.031c-10.898 0-19.734 8.832-19.734 19.73 0 10.898 8.8359 19.734 19.734 19.734h98.664c10.898 0 19.73-8.8359 19.73-19.734z" fill="#fff"/>
  <path d="m198.41 553.59c0 10.898 8.832 19.734 19.73 19.734s19.734-8.8359 19.734-19.734v-36.676c19.871 19.48 43.758 34.652 70.188 44.344 39.91 14.637 83.48 15.992 124.23 3.8672 40.742-12.125 76.484-37.086 101.89-71.164 25.414-34.078 39.145-75.453 39.145-117.96 0-10.898-8.8359-19.73-19.734-19.73s-19.73 8.832-19.73 19.73c0 34.012-10.984 67.109-31.316 94.371-20.328 27.262-48.918 47.23-81.516 56.93-32.598 9.7031-67.453 8.6172-99.383-3.0898-27.141-9.9531-50.93-27.129-68.875-49.547h64.031c10.898 0 19.73-8.8359 19.73-19.734 0-10.895-8.832-19.73-19.73-19.73h-98.664c-10.898 0-19.73 8.8359-19.73 19.73z" fill="#fff"/>
 </g>
</svg>
